<!DOCTYPE svg PUBLIC "-//W3C//DTD SVG 1.1//EN" "http://www.w3.org/Graphics/SVG/1.1/DTD/svg11.dtd">
<!-- Uploaded to: SVG Repo, www.svgrepo.com, Transformed by: SVG Repo Mixer Tools -->
<svg fill="#cbdeec" height="800px" width="800px" version="1.1" id="Layer_1" xmlns="http://www.w3.org/2000/svg" xmlns:xlink="http://www.w3.org/1999/xlink" viewBox="0 0 506.616 506.616" xml:space="preserve" stroke="#cbdeec">
<g id="SVGRepo_bgCarrier" stroke-width="0"/>
<g id="SVGRepo_tracerCarrier" stroke-linecap="round" stroke-linejoin="round"/>
<g id="SVGRepo_iconCarrier"> <g> <g> <path d="M465.411,427.184c-94.332-1.536-171.076-79.532-171.076-173.876s76.748-172.34,171.08-173.872 c1.592-0.02,3.02-1.004,3.612-2.488c0.588-1.484,0.24-3.176-0.904-4.292C420.447,25.804,357.403,0,290.615,0 C150.939,0,37.307,113.632,37.307,253.308c0,139.68,113.632,253.308,253.308,253.308c66.788,0,129.832-25.804,177.508-72.66 c1.14-1.116,1.492-2.808,0.904-4.288C468.431,428.184,467.007,427.204,465.411,427.184z"/> </g> </g> </g>
</svg>